<?xml version="1.0" encoding="UTF-8" standalone="no"?>
<!-- Created with Inkscape (http://www.inkscape.org/) -->

<svg
   width="240.64595mm"
   height="97.101494mm"
   viewBox="0 0 240.64596 97.101494"
   version="1.1"
   id="svg5"
   sodipodi:docname="logo.svg"
   inkscape:version="1.1.2 (0a00cf5339, 2022-02-04)"
   xmlns:inkscape="http://www.inkscape.org/namespaces/inkscape"
   xmlns:sodipodi="http://sodipodi.sourceforge.net/DTD/sodipodi-0.dtd"
   xmlns="http://www.w3.org/2000/svg"
   xmlns:svg="http://www.w3.org/2000/svg">
  <sodipodi:namedview
     id="namedview7"
     pagecolor="#ffffff"
     bordercolor="#000000"
     borderopacity="0.25"
     inkscape:pageshadow="2"
     inkscape:pageopacity="0.0"
     inkscape:pagecheckerboard="0"
     inkscape:document-units="mm"
     showgrid="false"
     inkscape:zoom="0.32408871"
     inkscape:cx="1241.9439"
     inkscape:cy="260.73108"
     inkscape:window-width="1360"
     inkscape:window-height="768"
     inkscape:window-x="0"
     inkscape:window-y="0"
     inkscape:window-maximized="1"
     inkscape:current-layer="g29256"
     showguides="true"
     inkscape:guide-bbox="true"
     fit-margin-top="0"
     fit-margin-left="0"
     fit-margin-right="0"
     fit-margin-bottom="0">
    <sodipodi:guide
       position="413.72349,-8.3237666"
       orientation="0,-1"
       id="guide1050" />
    <sodipodi:guide
       position="329.75854,22.208944"
       orientation="0,-1"
       id="guide1052" />
    <sodipodi:guide
       position="309.6347,-43.02003"
       orientation="0,-1"
       id="guide8305" />
  </sodipodi:namedview>
  <defs
     id="defs2">
    <rect
       x="1450.9833"
       y="836.33698"
       width="627.99548"
       height="208.87424"
       id="rect2860" />
    <marker
       style="overflow:visible"
       id="Arrow1Lstart"
       refX="0"
       refY="0"
       orient="auto"
       inkscape:stockid="Arrow1Lstart"
       inkscape:isstock="true">
      <path
         transform="matrix(0.8,0,0,0.8,10,0)"
         style="fill:context-stroke;fill-rule:evenodd;stroke:context-stroke;stroke-width:1pt"
         d="M 0,0 5,-5 -12.5,0 5,5 Z"
         id="path24629" />
    </marker>
  </defs>
  <g
     inkscape:label="Capa 1"
     inkscape:groupmode="layer"
     id="layer1"
     transform="translate(-47.04286,-77.771)">
    <g
       id="g258"
       transform="translate(-218.53495,-18.025792)">
      <g
         id="g29256"
         transform="translate(-174.3666,-8.8624076)">
        <g
           aria-label="i-store"
           transform="matrix(0.36292028,0,0,0.32622067,-18.415443,-144.90077)"
           id="text2858"
           style="font-size:106.667px;line-height:1.48;font-family:Mallana;-inkscape-font-specification:Mallana;text-align:center;white-space:pre;shape-inside:url(#rect2860);fill:#1976d2;fill-opacity:1;stroke-width:31.8576;stroke-linecap:round;paint-order:stroke fill markers">
          <path
             d="m 1608.2755,955.80493 v -59.20018 h 13.9733 v 59.20018 z m 7.04,-69.54688 q -3.84,0 -6.08,-2.13334 -2.2401,-2.24001 -2.2401,-5.86669 0,-3.52001 2.2401,-5.65335 2.24,-2.24001 6.08,-2.24001 3.6267,0 5.9733,2.24001 2.3467,2.13334 2.3467,5.65335 0,3.62668 -2.3467,5.86669 -2.3466,2.13334 -5.9733,2.13334 z"
             style="font-weight:600;font-family:'Noto Sans HK';-inkscape-font-specification:'Noto Sans HK Semi-Bold';fill:#1976d2;fill-opacity:1"
             id="path29332" />
          <path
             d="m 1636.1155,930.52485 v -10.13336 h 28.6934 v 10.13336 z"
             style="font-weight:600;font-family:'Noto Sans HK';-inkscape-font-specification:'Noto Sans HK Semi-Bold';fill:#1976d2;fill-opacity:1"
             id="path29334" />
          <path
             d="m 1695.2088,957.29827 q -6.08,0 -12.0533,-2.34667 -5.9734,-2.34668 -10.3467,-5.97336 l 6.4,-8.96002 q 3.9467,3.09334 7.8933,4.90668 3.9467,1.81334 8.4267,1.81334 4.8001,0 7.1467,-2.02668 2.3467,-2.02667 2.3467,-5.12001 0,-2.45334 -1.92,-4.05335 -1.8133,-1.70667 -4.8,-2.98667 -2.88,-1.28001 -5.9734,-2.45335 -3.84,-1.49333 -7.5733,-3.62667 -3.7334,-2.13334 -6.1867,-5.44002 -2.4534,-3.30668 -2.4534,-8.21336 0,-5.12002 2.5601,-9.06669 2.6666,-4.05335 7.4666,-6.29336 4.9067,-2.34667 11.5201,-2.34667 6.1867,0 11.0933,2.13334 5.0134,2.13334 8.5334,5.01335 l -6.4,8.53336 q -3.0934,-2.24001 -6.2934,-3.62668 -3.2,-1.49334 -6.6133,-1.49334 -4.48,0 -6.6134,1.92001 -2.1333,1.81334 -2.1333,4.58668 0,2.34667 1.6,3.84001 1.7067,1.49334 4.48,2.66668 2.7733,1.06667 5.9734,2.24 3.0933,1.17334 6.08,2.56001 2.9867,1.38667 5.44,3.41334 2.4533,2.02668 3.84,4.90669 1.4933,2.88001 1.4933,7.04002 0,5.12001 -2.6666,9.38669 -2.56,4.16002 -7.6801,6.61336 -5.12,2.45334 -12.5867,2.45334 z"
             style="font-weight:600;font-family:'Noto Sans HK';-inkscape-font-specification:'Noto Sans HK Semi-Bold';fill:#1976d2;fill-opacity:1"
             id="path29336" />
          <path
             d="m 1748.5038,957.29827 q -6.8267,0 -10.9867,-2.66668 -4.0534,-2.77334 -5.9734,-7.57335 -1.8133,-4.90668 -1.8133,-11.3067 v -28.05343 h -8.4267 v -10.45336 l 9.28,-0.64 1.4934,-16.21339 h 11.6267 v 16.21339 h 15.04 v 11.09336 h -15.04 v 28.16009 q 0,5.12002 2.0266,7.78669 2.1334,2.56001 6.4001,2.56001 1.4933,0 3.0933,-0.42667 1.7067,-0.42666 2.9867,-0.96 l 2.3467,10.24003 q -2.3467,0.74667 -5.4401,1.49334 -2.9866,0.74667 -6.6133,0.74667 z"
             style="font-weight:600;font-family:'Noto Sans HK';-inkscape-font-specification:'Noto Sans HK Semi-Bold';fill:#1976d2;fill-opacity:1"
             id="path29338" />
          <path
             d="m 1792.9772,957.29827 q -7.36,0 -13.8667,-3.62668 -6.4,-3.73334 -10.3467,-10.6667 -3.9467,-7.04002 -3.9467,-16.74672 0,-9.92003 3.9467,-16.85338 3.9467,-6.93336 10.3467,-10.56004 6.5067,-3.73334 13.8667,-3.73334 5.5467,0 10.5601,2.13334 5.12,2.02667 9.0667,6.08002 3.9466,3.94668 6.1866,9.70669 2.3467,5.76002 2.3467,13.22671 0,9.7067 -3.9467,16.74672 -3.9466,6.93336 -10.4533,10.6667 -6.4,3.62668 -13.7601,3.62668 z m 0,-11.52004 q 4.3734,0 7.4667,-2.34667 3.0934,-2.45334 4.6934,-6.82669 1.7066,-4.48001 1.7066,-10.3467 0,-5.97335 -1.7066,-10.3467 -1.6,-4.48001 -4.6934,-6.82668 -3.0933,-2.45335 -7.4667,-2.45335 -4.2666,0 -7.36,2.45335 -3.0933,2.34667 -4.8,6.82668 -1.6,4.37335 -1.6,10.3467 0,5.86669 1.6,10.3467 1.7067,4.37335 4.8,6.82669 3.0934,2.34667 7.36,2.34667 z"
             style="font-weight:600;font-family:'Noto Sans HK';-inkscape-font-specification:'Noto Sans HK Semi-Bold';fill:#1976d2;fill-opacity:1"
             id="path29340" />
          <path
             d="m 1834.8972,955.80493 v -59.20018 h 11.4134 l 1.1734,10.56003 h 0.2133 q 3.2,-5.76002 7.68,-8.85336 4.48,-3.20001 9.1734,-3.20001 2.3466,0 3.84,0.32 1.6,0.32 2.88,0.96 l -2.3467,12.05337 q -1.6,-0.42666 -2.9867,-0.64 -1.28,-0.32 -3.2,-0.32 -3.4133,0 -7.36,2.77334 -3.84,2.77334 -6.5067,9.49337 v 36.05344 z"
             style="font-weight:600;font-family:'Noto Sans HK';-inkscape-font-specification:'Noto Sans HK Semi-Bold';fill:#1976d2;fill-opacity:1"
             id="path29342" />
          <path
             d="m 1903.5521,957.29827 q -8.2133,0 -14.8267,-3.73335 -6.6134,-3.73334 -10.56,-10.6667 -3.84,-6.93335 -3.84,-16.64005 0,-7.25335 2.24,-12.9067 2.3466,-5.76002 6.1866,-9.81337 3.9467,-4.16001 8.7467,-6.29335 4.9067,-2.13334 10.1334,-2.13334 8,0 13.44,3.62668 5.4401,3.52001 8.2134,9.92003 2.7733,6.29335 2.7733,14.61338 0,2.02667 -0.2133,3.84001 -0.1067,1.70667 -0.4267,2.88001 h -37.4401 q 0.5334,5.22668 2.88,8.85336 2.3467,3.62668 5.9734,5.65335 3.7333,1.92001 8.5334,1.92001 3.7333,0 7.04,-1.06667 3.3067,-1.17334 6.6133,-3.20001 l 4.8,8.74669 q -4.16,2.77334 -9.3867,4.58668 -5.2266,1.81334 -10.88,1.81334 z m -15.7867,-36.80012 h 26.3467 q 0,-6.72002 -3.0933,-10.56003 -3.0933,-3.94668 -9.1734,-3.94668 -3.3066,0 -6.2933,1.70667 -2.9867,1.60001 -5.12,4.80002 -2.0267,3.20001 -2.6667,8.00002 z"
             style="font-weight:600;font-family:'Noto Sans HK';-inkscape-font-specification:'Noto Sans HK Semi-Bold';fill:#1976d2;fill-opacity:1"
             id="path29344" />
        </g>
        <g
           id="g11717">
          <circle
             style="fill:#ffffff;fill-opacity:0.996078;stroke:#e38c3f;stroke-width:7.193;stroke-linecap:round;stroke-miterlimit:4;stroke-dasharray:none;stroke-opacity:0.992157;paint-order:stroke fill markers"
             id="path9348"
             cx="512.78845"
             cy="146.17294"
             r="5.2321682" />
          <path
             style="fill:none;fill-opacity:0.996078;stroke:#e28c3f;stroke-width:3.79299;stroke-linecap:square;stroke-miterlimit:4;stroke-dasharray:none;stroke-opacity:0.992157;paint-order:stroke fill markers"
             d="m 460.99588,155.04364 10.80621,-0.17755 c 5.64122,-2.91903 5.74857,-7.37769 8.78039,-8.08027 l 24.93377,-0.003"
             id="path14760"
             sodipodi:nodetypes="cccc" />
          <circle
             style="fill:#ffffff;fill-opacity:0.996078;stroke:#e38c3f;stroke-width:7.193;stroke-linecap:round;stroke-miterlimit:4;stroke-dasharray:none;stroke-opacity:0.992157;paint-order:stroke fill markers"
             id="circle21714"
             cx="501.74359"
             cy="164.69232"
             r="2.6139467" />
          <path
             style="fill:#e28c40;fill-opacity:0.996078;stroke:#e28c3f;stroke-width:3.81792;stroke-linecap:square;stroke-miterlimit:4;stroke-dasharray:none;stroke-opacity:0.992157;paint-order:stroke fill markers"
             d="m 460.73147,164.93337 34.35689,-0.0815"
             id="path21965" />
          <circle
             style="fill:#ffffff;fill-opacity:0.996078;stroke:#e38c3f;stroke-width:8.90604;stroke-linecap:round;stroke-miterlimit:4;stroke-dasharray:none;stroke-opacity:0.992157;paint-order:stroke fill markers"
             id="circle22047"
             cx="511.34128"
             cy="193.73233"
             r="3.5753427" />
          <circle
             style="fill:#ffffff;fill-opacity:0.996078;stroke:#e38c3f;stroke-width:8.90604;stroke-linecap:round;stroke-miterlimit:4;stroke-dasharray:none;stroke-opacity:0.992157;paint-order:stroke fill markers"
             id="circle22049"
             cx="464.64651"
             cy="193.68553"
             r="3.5753427" />
          <g
             id="g12246"
             transform="translate(-177.38676,-0.48788056)">
            <rect
               style="fill:#ffffff;fill-opacity:1;stroke:none;stroke-width:11.9014;stroke-linecap:round;stroke-linejoin:round;stroke-miterlimit:4;stroke-dasharray:none;paint-order:stroke fill markers"
               id="rect16873"
               width="40.045788"
               height="24.308586"
               x="635.99518"
               y="109.58794" />
            <path
               style="fill:none;fill-opacity:1;stroke:#e38b3f;stroke-width:5.929;stroke-linecap:round;stroke-linejoin:round;stroke-miterlimit:4;stroke-dasharray:none;paint-order:stroke fill markers"
               d="m 635.99515,131.25071 0.21306,-23.13913 39.93318,0.0332 -0.10045,22.67267"
               id="path8390"
               sodipodi:nodetypes="cccc" />
            <path
               style="fill:#ffffff;fill-opacity:1;stroke:#e38b3f;stroke-width:5.029;stroke-linecap:round;stroke-linejoin:round;stroke-miterlimit:4;stroke-dasharray:none;paint-order:stroke fill markers"
               d="m 632.18558,134.1624 47.78721,-0.10426"
               id="path10584"
               sodipodi:nodetypes="cc" />
          </g>
          <path
             style="fill:none;fill-opacity:1;stroke:#e28c41;stroke-width:5.367;stroke-linecap:round;stroke-linejoin:round;stroke-miterlimit:7.1;stroke-dasharray:none;paint-order:normal"
             d="m 552.62969,120.81632 -13.63091,-0.32204 c -4.41838,16.49579 -7.62501,33.39971 -12.0434,49.8955 0,0 -1.16922,8.27945 -8.35655,9.16197 -20.59733,-0.03 -38.50826,-0.32358 -58.59051,-0.40406 -2.12939,-0.009 -6.49787,-0.0178 -6.49787,-0.0178 -4.12594,0.23115 -6.01019,-1.58283 -6.35853,-4.90935 -0.36978,-3.5312 -0.36978,-3.5312 -0.36978,-3.5312 l -1.96066,-13.50841 -2.19357,-22.44803"
             id="path17079"
             sodipodi:nodetypes="ccscscsccc" />
        </g>
      </g>
    </g>
  </g>
</svg>
